<svg xmlns="http://www.w3.org/2000/svg" version="1.1" viewBox="0.00 0.00 600.00 600.00" width="600.00" height="600.00">
<g stroke-width="2.00" fill="none" stroke-linecap="butt">
<path stroke="#bde2cf" d="&#10;  M 349.92 101.24&#10;  Q 349.94 101.72 348.99 101.73&#10;  Q 299.02 102.13 249.00 101.43"/>
<path stroke="#bde2cf" d="&#10;  M 496.95 255.87&#10;  L 102.04 255.87"/>
<path stroke="#9bd9e1" d="&#10;  M 496.99 288.13&#10;  L 237.69 288.15&#10;  A 1.10 1.09 7.2 0 0 236.63 288.97&#10;  Q 218.83 357.11 217.64 361.64&#10;  C 215.17 371.09 215.19 378.26 227.28 378.24&#10;  Q 323.08 378.03 375.01 378.14&#10;  C 378.16 378.14 383.61 377.86 384.59 374.80&#10;  Q 385.82 371.00 384.69 366.28&#10;  Q 377.67 337.08 372.07 314.28&#10;  A 0.50 0.50 0.0 0 1 372.56 313.66&#10;  L 404.65 313.66&#10;  A 0.83 0.83 0.0 0 1 405.46 314.30&#10;  Q 409.44 331.55 415.97 360.01&#10;  C 419.04 373.38 421.26 387.56 411.05 398.61&#10;  C 402.07 408.33 390.23 411.01 377.25 411.02&#10;  Q 252.96 411.06 220.51 411.00&#10;  C 200.90 410.97 182.15 397.24 182.34 376.26&#10;  Q 182.40 370.01 184.34 362.31&#10;  Q 190.56 337.56 202.74 290.99&#10;  Q 203.06 289.77 202.92 288.52&#10;  A 0.35 0.35 0.0 0 0 202.57 288.20&#10;  L 102.02 288.15"/>
<path stroke="#bde2cf" d="&#10;  M 420.63 217.70&#10;  L 397.92 172.36&#10;  A 0.68 0.68 0.0 0 0 396.90 172.13&#10;  Q 389.20 178.09 380.88 184.68&#10;  Q 378.20 186.81 374.00 186.81&#10;  Q 307.68 186.82 211.00 186.81&#10;  Q 194.95 186.81 182.72 187.02&#10;  A 0.62 0.62 0.0 0 0 182.11 187.64&#10;  L 182.11 217.74&#10;  A 0.93 0.92 0.0 0 0 183.04 218.66&#10;  L 420.04 218.66&#10;  A 0.66 0.66 0.0 0 0 420.63 217.70"/>
</g>
<path fill="#ffffff" d="&#10;  M 349.92 101.24&#10;  Q 349.94 101.72 348.99 101.73&#10;  Q 299.02 102.13 249.00 101.43&#10;  Q 299.48 100.52 349.92 101.24&#10;  Z"/>
<path fill="#7ac49f" d="&#10;  M 249.00 101.43&#10;  Q 299.02 102.13 348.99 101.73&#10;  Q 349.94 101.72 349.92 101.24&#10;  C 365.55 101.44 381.35 102.97 396.06 107.44&#10;  C 435.72 119.50 468.58 148.02 485.21 185.90&#10;  Q 495.18 208.58 496.86 230.49&#10;  Q 497.28 235.97 496.95 255.87&#10;  L 102.04 255.87&#10;  Q 102.07 245.47 102.74 235.24&#10;  C 105.53 192.79 125.98 154.94 159.99 129.51&#10;  Q 185.31 110.59 216.09 104.41&#10;  Q 231.65 101.28 249.00 101.43&#10;  Z&#10;  M 420.63 217.70&#10;  L 397.92 172.36&#10;  A 0.68 0.68 0.0 0 0 396.90 172.13&#10;  Q 389.20 178.09 380.88 184.68&#10;  Q 378.20 186.81 374.00 186.81&#10;  Q 307.68 186.82 211.00 186.81&#10;  Q 194.95 186.81 182.72 187.02&#10;  A 0.62 0.62 0.0 0 0 182.11 187.64&#10;  L 182.11 217.74&#10;  A 0.93 0.92 0.0 0 0 183.04 218.66&#10;  L 420.04 218.66&#10;  A 0.66 0.66 0.0 0 0 420.63 217.70&#10;  Z"/>
<path fill="#ffffff" d="&#10;  M 420.63 217.70&#10;  A 0.66 0.66 0.0 0 1 420.04 218.66&#10;  L 183.04 218.66&#10;  A 0.93 0.92 -0.0 0 1 182.11 217.74&#10;  L 182.11 187.64&#10;  A 0.62 0.62 0.0 0 1 182.72 187.02&#10;  Q 194.95 186.81 211.00 186.81&#10;  Q 307.68 186.82 374.00 186.81&#10;  Q 378.20 186.81 380.88 184.68&#10;  Q 389.20 178.09 396.90 172.13&#10;  A 0.68 0.68 0.0 0 1 397.92 172.36&#10;  L 420.63 217.70&#10;  Z"/>
<path fill="#ffffff" d="&#10;  M 496.95 255.87&#10;  L 496.99 288.13&#10;  L 237.69 288.15&#10;  A 1.10 1.09 7.2 0 0 236.63 288.97&#10;  Q 218.83 357.11 217.64 361.64&#10;  C 215.17 371.09 215.19 378.26 227.28 378.24&#10;  Q 323.08 378.03 375.01 378.14&#10;  C 378.16 378.14 383.61 377.86 384.59 374.80&#10;  Q 385.82 371.00 384.69 366.28&#10;  Q 377.67 337.08 372.07 314.28&#10;  A 0.50 0.50 0.0 0 1 372.56 313.66&#10;  L 404.65 313.66&#10;  A 0.83 0.83 0.0 0 1 405.46 314.30&#10;  Q 409.44 331.55 415.97 360.01&#10;  C 419.04 373.38 421.26 387.56 411.05 398.61&#10;  C 402.07 408.33 390.23 411.01 377.25 411.02&#10;  Q 252.96 411.06 220.51 411.00&#10;  C 200.90 410.97 182.15 397.24 182.34 376.26&#10;  Q 182.40 370.01 184.34 362.31&#10;  Q 190.56 337.56 202.74 290.99&#10;  Q 203.06 289.77 202.92 288.52&#10;  A 0.35 0.35 0.0 0 0 202.57 288.20&#10;  L 102.02 288.15&#10;  L 102.04 255.87&#10;  L 496.95 255.87&#10;  Z"/>
<path fill="#37b2c2" d="&#10;  M 496.99 288.13&#10;  Q 496.98 323.05 497.23 357.74&#10;  Q 497.37 377.33 491.15 397.38&#10;  Q 485.25 416.39 475.57 431.28&#10;  Q 444.02 479.79 387.82 493.83&#10;  C 377.53 496.40 366.89 497.09 354.31 497.02&#10;  Q 347.73 496.98 237.50 497.00&#10;  C 232.82 497.01 226.70 496.61 221.87 495.74&#10;  Q 165.06 485.48 131.04 440.73&#10;  Q 108.66 411.31 103.64 373.12&#10;  Q 102.35 363.27 102.20 345.25&#10;  Q 101.97 316.78 102.02 288.15&#10;  L 202.57 288.20&#10;  A 0.35 0.35 0.0 0 1 202.92 288.52&#10;  Q 203.06 289.77 202.74 290.99&#10;  Q 190.56 337.56 184.34 362.31&#10;  Q 182.40 370.01 182.34 376.26&#10;  C 182.15 397.24 200.90 410.97 220.51 411.00&#10;  Q 252.96 411.06 377.25 411.02&#10;  C 390.23 411.01 402.07 408.33 411.05 398.61&#10;  C 421.26 387.56 419.04 373.38 415.97 360.01&#10;  Q 409.44 331.55 405.46 314.30&#10;  A 0.83 0.83 0.0 0 0 404.65 313.66&#10;  L 372.56 313.66&#10;  A 0.50 0.50 0.0 0 0 372.07 314.28&#10;  Q 377.67 337.08 384.69 366.28&#10;  Q 385.82 371.00 384.59 374.80&#10;  C 383.61 377.86 378.16 378.14 375.01 378.14&#10;  Q 323.08 378.03 227.28 378.24&#10;  C 215.19 378.26 215.17 371.09 217.64 361.64&#10;  Q 218.83 357.11 236.63 288.97&#10;  A 1.10 1.09 7.2 0 1 237.69 288.15&#10;  L 496.99 288.13&#10;  Z"/>
</svg>